# xmcd
#
# Track frame offsets:
# 150
# 17246
# 39549
# 51705
# 75099
# 89683
# 104496
# 117693
# 130667
# 137541
# 149199
# 160886
# 175724
# 198053
# 217112
# 229820
# 249394
# 269009
# 283782
# 300732
# 321921
# 332506
#
# Disc length: 4580 seconds
#
#
# Revision: 2
# Processed by: cddbd v1.5.1PL2 Copyright (c) Steve Scherf et al.
# Submitted via: FreeRIP 2.944 
#
DISCID=4f11e216
DTITLE=Ministry Of Sound - Addicted To Bass - cd2
DYEAR=2002
DGENRE=Dance
TTITLE0=Daniel Bedingfield - Gotta Get Thru This (D'N'D Full Length Version)
TTITLE1=So Solid Crew - Oh No [Sentimental Things] (DJ Oxide Remix)
TTITLE2=DJ Zinc - 138 Trek
TTITLE3=Jammin - Go DJ
TTITLE4=Azzido Da Bass - Dooms Night (Timo Maas Remix)
TTITLE5=Reflex ft MC Viper - Put Your Hands Up
TTITLE6=Soulo and Steve Feelgood - True
TTITLE7=K2 Family - Bouncing Flow
TTITLE8=So Solid Crew - Dilemma
TTITLE9=D'N'D ft Easy Rider - Pick It Up
TTITLE10=Santos - 3-2-1 Fire (Dubaholics Break Da Rules Mix)
TTITLE11=Menta - Sounds Of Da Future
TTITLE12=DJ Pied Piper and The Masters of Ceremonies - Do You Really Like It (Sovereign Mix)
TTITLE13=Static Revenger - Happy People (Dubaholics Hard Dub)
TTITLE14=Sunship - Cheque One-Two
TTITLE15=Genius Cru - Boom Selection (Bullet Proof Dub)
TTITLE16=Shut Up And Dance - No Doubt
TTITLE17=Wookie - Back Up Back Up Back Up
TTITLE18=Genius Cru - Course Bruv
TTITLE19=Nesha - Whats It Gonna Be (Sticky Y2K Mix)
TTITLE20=Aora - Out Of The Rain (Dubaholics Instrumental)
TTITLE21=Cleptomaniacs ft Bryan Chambers - All I Do (Bump and Flex Dub)
EXTD=
EXTT0=
EXTT1=
EXTT2=
EXTT3=
EXTT4=
EXTT5=
EXTT6=
EXTT7=
EXTT8=
EXTT9=
EXTT10=
EXTT11=
EXTT12=
EXTT13=
EXTT14=
EXTT15=
EXTT16=
EXTT17=
EXTT18=
EXTT19=
EXTT20=
EXTT21=
PLAYORDER=
